HIERARCHY
ROOT Hips
{
	OFFSET -289.291687 93.277428 487.970490
	CHANNELS 6 Xposition Yposition Zposition Zrotation Yrotation Xrotation 
	JOINT LeftUpLeg
	{
		OFFSET 0.103457 1.857815 10.548515
		CHANNELS 3 Zrotation Yrotation Xrotation
		JOINT LeftLeg
		{
			OFFSET 43.500000 -0.000031 0.000010
			CHANNELS 3 Zrotation Yrotation Xrotation
			JOINT LeftFoot
			{
				OFFSET 42.372196 0.000027 0.000010
				CHANNELS 3 Zrotation Yrotation Xrotation
				JOINT LeftToe
				{
					OFFSET 17.299986 -0.000005 -0.000015
					CHANNELS 3 Zrotation Yrotation Xrotation
					End Site
					{
						OFFSET 0.000000 0.000000 0.000000
					}
				}
			}
		}
	}
	JOINT RightUpLeg
	{
		OFFSET 0.103456 1.857828 -10.548502
		CHANNELS 3 Zrotation Yrotation Xrotation
		JOINT RightLeg
		{
			OFFSET 43.500050 -0.000019 0.000008
			CHANNELS 3 Zrotation Yrotation Xrotation
			JOINT RightFoot
			{
				OFFSET 42.372257 0.000008 0.000000
				CHANNELS 3 Zrotation Yrotation Xrotation
				JOINT RightToe
				{
					OFFSET 17.299990 -0.000006 0.000004
					CHANNELS 3 Zrotation Yrotation Xrotation
					End Site
					{
						OFFSET 0.000000 0.000000 0.000000
					}
				}
			}
		}
	}
	JOINT Spine
	{
		OFFSET 6.901966 -2.603730 -0.000010
		CHANNELS 3 Zrotation Yrotation Xrotation
		JOINT Spine1
		{
			OFFSET 12.588100 0.000015 0.000006
			CHANNELS 3 Zrotation Yrotation Xrotation
			JOINT Spine2
			{
				OFFSET 12.343200 -0.000014 -0.000002
				CHANNELS 3 Zrotation Yrotation Xrotation
				JOINT Neck
				{
					OFFSET 25.832893 0.000000 0.000009
					CHANNELS 3 Zrotation Yrotation Xrotation
					JOINT Head
					{
						OFFSET 11.766606 -0.000005 -0.000008
						CHANNELS 3 Zrotation Yrotation Xrotation
						End Site
						{
							OFFSET 0.000000 0.000000 0.000000
						}
					}
				}
				JOINT LeftShoulder
				{
					OFFSET 19.745899 -1.480379 6.000125
					CHANNELS 3 Zrotation Yrotation Xrotation
					JOINT LeftArm
					{
						OFFSET 11.284120 -0.000014 -0.000022
						CHANNELS 3 Zrotation Yrotation Xrotation
						JOINT LeftForeArm
						{
							OFFSET 33.000046 -0.000003 0.000040
							CHANNELS 3 Zrotation Yrotation Xrotation
							JOINT LeftHand
							{
								OFFSET 25.200005 0.000021 0.000005
								CHANNELS 3 Zrotation Yrotation Xrotation
								End Site
								{
									OFFSET 0.000000 0.000000 0.000000
								}
							}
						}
					}
				}
				JOINT RightShoulder
				{
					OFFSET 19.746098 -1.480364 -6.000083
					CHANNELS 3 Zrotation Yrotation Xrotation
					JOINT RightArm
					{
						OFFSET 11.284119 -0.000012 -0.000016
						CHANNELS 3 Zrotation Yrotation Xrotation
						JOINT RightForeArm
						{
							OFFSET 33.000099 0.000009 0.000020
							CHANNELS 3 Zrotation Yrotation Xrotation
							JOINT RightHand
							{
								OFFSET 25.199772 0.000168 0.000421
								CHANNELS 3 Zrotation Yrotation Xrotation
								End Site
								{
									OFFSET 0.000000 0.000000 0.000000
								}
							}
						}
					}
				}
			}
		}
	}
}
MOTION
Frames: 12
Frame Time: 0.033333
336.364990 88.591553 616.381592 103.070505 17.616041 -51.680391 136.249146 -11.115008 -175.638000 -20.863730 -3.094264 -4.308865 72.205932 -0.266704 -10.635989 21.454551 0.003091 -0.000001 132.655852 8.709508 -178.943757 -26.734096 0.617836 -1.035116 73.365992 3.058156 7.503209 21.454558 -0.003110 -0.000019 15.962012 -0.730185 0.220100 21.911093 -1.488828 0.297970 21.592875 -1.486870 0.306975 -6.401485 11.300345 -0.764789 -50.575242 -5.433643 6.232134 75.277762 -79.801287 103.781378 -58.913476 43.746938 16.656665 -39.274998 -15.722686 1.495352 23.514806 -12.613978 0.578611 88.327446 73.929947 -91.407739 -49.372760 -44.402653 -19.160969 -39.622470 16.511251 -1.571207 24.438166 25.016973 -0.256974 
336.411987 88.577522 616.448181 102.954208 17.545721 -51.730500 136.381201 -11.076009 -175.599082 -20.776286 -3.077363 -4.368022 72.205850 -0.260402 -10.748292 21.454548 0.003090 -0.000001 132.725110 8.723007 -178.961229 -26.710744 0.595671 -1.050318 73.327907 3.078690 7.524469 21.454557 -0.003108 -0.000018 15.974597 -0.730829 0.207680 21.936414 -1.487750 0.273058 21.618199 -1.485937 0.282054 -6.330385 11.255653 -0.764835 -50.584822 -5.431649 6.212002 75.516743 -79.791861 103.545804 -58.914131 43.720294 16.736549 -39.200324 -15.764182 1.496302 23.553566 -12.471830 0.422874 88.470313 74.003713 -91.259264 -49.538662 -44.359008 -19.051848 -39.560299 16.509435 -1.569681 24.516728 24.966592 -0.247901 
336.461487 88.564980 616.515686 102.866214 17.450233 -51.809515 136.463928 -11.095203 -175.574521 -20.800634 -3.068019 -4.408221 72.312674 -0.250484 -10.839440 21.454553 0.003095 -0.000001 132.829817 8.682992 -178.966283 -26.617884 0.577047 -1.068913 73.252194 3.100219 7.532724 21.454557 -0.003110 -0.000018 15.990286 -0.724846 0.211156 21.967739 -1.476570 0.280878 21.649529 -1.474709 0.289807 -6.278243 11.126547 -0.764800 -50.585156 -5.393395 6.144019 75.501901 -79.869363 103.554458 -59.042361 43.681734 16.706595 -39.218366 -15.808548 1.497224 23.528525 -12.200267 0.260409 88.480968 74.071407 -91.242673 -49.684842 -44.369793 -18.921495 -39.473279 16.524671 -1.567643 24.604365 24.944122 -0.220281 
336.511902 88.547882 616.590698 102.823095 17.358279 -51.899291 136.441471 -11.160508 -175.534468 -20.962643 -3.094704 -4.435076 72.494139 -0.205464 -10.814539 21.454551 0.003089 -0.000001 132.915741 8.617299 -178.932720 -26.499122 0.567557 -1.099907 73.156961 3.126138 7.522461 21.454558 -0.003105 -0.000017 15.998478 -0.711645 0.224182 21.983917 -1.452913 0.309112 21.665702 -1.450879 0.317895 -6.261940 10.952523 -0.736895 -50.525119 -5.311827 6.059445 75.228803 -80.044455 103.810816 -59.261262 43.645496 16.549516 -39.309938 -15.798820 1.498106 23.487024 -12.022712 0.252581 88.409306 74.126151 -91.309015 -49.777906 -44.394758 -18.820339 -39.400363 16.521393 -1.566056 24.666591 24.891328 -0.190493 
336.558197 88.521667 616.677429 102.838094 17.309221 -51.981995 136.284499 -11.254810 -175.524182 -21.236122 -3.154982 -4.424084 72.688348 -0.144649 -10.658102 21.454551 0.003093 0.000001 132.917967 8.557684 -178.854828 -26.405166 0.574589 -1.160721 73.068237 3.166588 7.492695 21.454558 -0.003108 -0.000019 15.987692 -0.693386 0.234257 21.962142 -1.418606 0.332673 21.643947 -1.416450 0.341251 -6.339264 10.805700 -0.677460 -50.350727 -5.232284 6.016131 74.854079 -80.252141 104.165439 -59.416178 43.628154 16.418392 -39.459461 -15.743825 1.498908 23.492128 -12.109222 0.339673 88.406567 74.132312 -91.311235 -49.759318 -44.369431 -18.860575 -39.372308 16.478019 -1.564296 24.687135 24.797224 -0.140314 
336.596588 88.483620 616.773987 102.911396 17.322961 -52.059692 135.995883 -11.378697 -175.572239 -21.595014 -3.241125 -4.370135 72.884272 -0.110834 -10.488889 21.454555 0.003101 0.000002 132.800830 8.498506 -178.762033 -26.372125 0.577559 -1.238743 73.006451 3.218120 7.464706 21.454558 -0.003100 -0.000016 15.951900 -0.673436 0.234575 21.890480 -1.379083 0.337533 21.572290 -1.376879 0.345870 -6.464655 10.729239 -0.603603 -50.118145 -5.186379 6.031346 74.518272 -80.391907 104.486861 -59.360334 43.641381 16.535309 -39.661085 -15.698579 1.499602 23.497512 -12.371753 0.267188 88.438218 74.073524 -91.285007 -49.642604 -44.308690 -19.066306 -39.388717 16.420395 -1.561883 24.680375 24.701096 -0.068572 
336.623199 88.432083 616.879028 103.012592 17.387505 -52.146087 135.636670 -11.522504 -175.704158 -21.986620 -3.325792 -4.276983 73.035486 -0.151672 -10.453921 21.454553 0.003084 -0.000001 132.578630 8.428113 -178.700958 -26.420480 0.549406 -1.311382 72.984533 3.273324 7.467296 21.454557 -0.003097 -0.000017 15.898165 -0.655001 0.229087 21.782983 -1.341382 0.330792 21.464814 -1.339233 0.338906 -6.570272 10.728518 -0.546355 -49.885311 -5.190052 6.083648 74.236588 -80.419337 104.763429 -59.122855 43.666086 16.933333 -39.866732 -15.695170 1.500160 23.432313 -12.498617 -0.080453 88.383536 74.026458 -91.343555 -49.551779 -44.274191 -19.297057 -39.426482 16.371595 -1.560046 24.661043 24.647820 -0.028027 
336.635101 88.374710 616.996521 103.083503 17.486119 -52.235200 135.289122 -11.617003 -175.884324 -22.346687 -3.389252 -4.179553 73.135938 -0.216640 -10.470157 21.454553 0.003093 -0.000000 132.304753 8.390104 -178.697884 -26.536509 0.500046 -1.371005 72.997544 3.327283 7.501582 21.454558 -0.003110 -0.000018 15.841770 -0.641100 0.221851 21.670274 -1.312397 0.319710 21.352081 -1.310316 0.327648 -6.632372 10.813063 -0.521968 -49.662589 -5.271969 6.177744 73.992218 -80.362872 105.009528 -58.867966 43.666123 17.424680 -40.001297 -15.695657 1.500553 23.331843 -12.345790 -0.540814 88.329051 74.054653 -91.394789 -49.502954 -44.289723 -19.457906 -39.503345 16.341361 -1.560021 24.633345 24.694978 -0.062917 
336.634308 88.321327 617.131470 103.094008 17.604840 -52.304595 135.003142 -11.611494 -176.030463 -22.618798 -3.445423 -4.123753 73.191235 -0.233609 -10.414301 21.454553 0.003096 -0.000001 132.030261 8.425296 -178.730013 -26.676772 0.439833 -1.421234 73.022939 3.381053 7.557976 21.454558 -0.003112 -0.000017 15.794536 -0.631258 0.214534 21.575857 -1.291450 0.307601 21.257680 -1.289435 0.315411 -6.697340 10.974738 -0.526337 -49.420004 -5.429840 6.315560 73.793617 -80.256396 105.213976 -58.704240 43.644287 17.804736 -40.040536 -15.639584 1.500749 23.252576 -12.139920 -0.919687 88.308923 74.135857 -91.407370 -49.407509 -44.356515 -19.578252 -39.664162 16.339619 -1.564122 24.587143 24.880369 -0.126209 
336.625488 88.277367 617.282471 103.075006 17.726332 -52.341703 134.772282 -11.541594 -176.135211 -22.790683 -3.503351 -4.098327 73.191112 -0.223892 -10.326343 21.454553 0.003096 0.000000 131.788555 8.517702 -178.716189 -26.777425 0.360518 -1.485466 73.033970 3.455430 7.642715 21.454563 -0.003107 -0.000015 15.756951 -0.621164 0.206888 21.500718 -1.269943 0.294744 21.182543 -1.268012 0.302429 -6.798812 11.164591 -0.533003 -49.158473 -5.595626 6.465305 73.617186 -80.133610 105.397851 -58.599335 43.655646 18.030410 -40.041581 -15.534739 1.500716 23.159440 -12.160063 -1.186253 88.312830 74.202472 -91.397466 -49.216564 -44.446551 -19.757029 -39.885197 16.360432 -1.571315 24.516744 25.131230 -0.184081 
336.609711 88.249130 617.438416 103.071099 17.836909 -52.366087 134.569794 -11.473008 -176.282210 -22.901834 -3.540599 -4.048219 73.165403 -0.226185 -10.211749 21.454555 0.003096 0.000000 131.611011 8.614801 -178.669129 -26.762290 0.289982 -1.549534 72.994997 3.539913 7.748523 21.454558 -0.003105 -0.000018 15.725186 -0.607802 0.198316 21.437249 -1.241828 0.280586 21.119071 -1.239972 0.288098 -6.940031 11.307402 -0.518787 -48.904103 -5.709657 6.591238 73.511721 -80.033561 105.509689 -58.462226 43.725488 18.211356 -40.069575 -15.468657 1.500424 23.018496 -12.406000 -1.413761 88.342978 74.218687 -91.366232 -49.009459 -44.499659 -19.998977 -40.063629 16.345326 -1.575057 24.465377 25.341257 -0.173497 
336.587799 88.235870 617.584229 103.092792 17.930131 -52.414100 134.389218 -11.445302 -176.508330 -22.995695 -3.539467 -3.959922 73.151210 -0.255716 -10.098230 21.454555 0.003093 -0.000001 131.505484 8.668703 -178.670973 -26.603799 0.251444 -1.559769 72.877763 3.593271 7.861929 21.454557 -0.003116 -0.000019 15.699974 -0.593117 0.194829 21.386849 -1.212030 0.276660 21.068671 -1.210202 0.283991 -7.131566 11.416385 -0.499684 -48.670261 -5.821845 6.719463 73.503340 -79.964283 105.523329 -58.281526 43.804039 18.427847 -40.139953 -15.491170 1.499840 22.879336 -12.646683 -1.636257 88.453682 74.219650 -91.256532 -48.897891 -44.476850 -20.252810 -40.112308 16.293374 -1.572974 24.489524 25.441587 -0.106707 
